PathFileType	4	(X/Y/Z)	31_2_rein_73_p1_0-202.trc
DataRate	CameraRate	NumFrames	NumMarkers	Units	OrigDataRate	OrigDataStartFrame	OrigNumFrames
45.0	45.0	5	27	m	45.0	152	203
Frame#	Time	RHip			RKnee			RAnkle			RBigToe			RSmallToe			RHeel			LHip			LKnee			LAnkle			LBigToe			LSmallToe			LHeel			Neck			Head			Nose			RShoulder			RElbow			RWrist			RThumb			RIndex			RPinky			LShoulder			LElbow			LWrist			LThumb			LIndex			LPinky			
		X1	Y1	Z1	X2	Y2	Z2	X3	Y3	Z3	X4	Y4	Z4	X5	Y5	Z5	X6	Y6	Z6	X7	Y7	Z7	X8	Y8	Z8	X9	Y9	Z9	X10	Y10	Z10	X11	Y11	Z11	X12	Y12	Z12	X13	Y13	Z13	X14	Y14	Z14	X15	Y15	Z15	X16	Y16	Z16	X17	Y17	Z17	X18	Y18	Z18	X19	Y19	Z19	X20	Y20	Z20	X21	Y21	Z21	X22	Y22	Z22	X23	Y23	Z23	X24	Y24	Z24	X25	Y25	Z25	X26	Y26	Z26	X27	Y27	Z27	
152	3.3777777777777778	0.20367297277615712	0.5501258744557033	0.1393589330885382	0.12103989201442952	0.7552535952286688	0.5307953763738534	0.0785880078743313	1.035422265889412	0.9046011607904806	0.06889529880640961	0.8154326692087582	0.9983848210940018	0.12714401935167416	0.8966828806130128	1.0017488460934738	0.0686091098099347	1.1064561813228069	0.9377141801452996	-0.011264163327744473	0.5530809303161174	0.1269666556213663	-0.01792301783391139	0.7913947579284968	0.5166701380892963	-0.04320464364043405	1.04514958948732	0.8788836531157133	-0.07903296017635295	0.8251880191262045	0.9811090850570543	-0.12535413909078508	0.9210294225491858	0.9588808579421723	-0.02536638307545054	1.1264052935037223	0.9291678826804086	0.1361199461338786	0.22473250323487112	-0.4428120258224457	0.10737482033665119	0.03745602570983231	-0.6425132662737248	0.0848116324075497	0.0777283698659286	-0.4960434208783909	0.29624602841620323	0.26404947535587614	-0.3461036725892557	0.3244993429940315	0.41701430399859785	-0.07890398986447654	0.28295250776491543	0.44367941883176454	0.21256310863475752	0.1962902795607948	0.4668018392947934	0.31127975879471387	0.20680942806119235	0.47424373106279266	0.34189328985240564	0.2470322709404091	0.576346021115068	0.31656118777332887	-0.046648193878448804	0.2901652793363605	-0.3665904277160631	-0.11349554222380077	0.4660558968485654	-0.10579230446240193	-0.1025452672136918	0.504205572135323	0.1726705712159906	-0.04312487654584145	0.47092298527495385	0.271532870191854	-0.05316919668614879	0.5055125005866595	0.31225363311689003	-0.10052851514205303	0.5640943004233714	0.28989473127122684
153	3.4	0.19899795199489523	0.5384785526763614	0.1451592812813458	0.12100330996049946	0.7552961783313156	0.5309050490767518	0.07856380372913895	1.0354354847037215	0.9045462731780946	0.0682405252413241	0.8132677259513414	0.9950594641457281	0.12640682575974174	0.8944587230839425	0.9980221290124321	0.06855707441661993	1.106759093578996	0.9377553439125813	-0.011338178843472336	0.552635542907472	0.12716936698934295	-0.018008504532410964	0.7907900551691118	0.516779338408425	-0.043218203377974815	1.0449420197194752	0.8788868369183945	-0.07908869885935872	0.825175292607767	0.9813727820875016	-0.1255375697549786	0.9210857551186368	0.9592845884833295	-0.025266892769904167	1.1263056486673473	0.9291686128896476	0.13618637495409444	0.22464914853379306	-0.44281996327292505	0.11122291797800918	0.03861390454778798	-0.6433507450711088	0.08511000377415308	0.07618386560725739	-0.499164568985313	0.2962061496968403	0.2652505164276698	-0.3426756517481483	0.32482526277338364	0.4195708849655647	-0.07566427368399029	0.28281933506128804	0.4435653187995394	0.2126338410693067	0.19609787149480842	0.4666389361284708	0.3114578688287593	0.20671407256614954	0.47410951626264575	0.3419572769856939	0.23905815584281442	0.576216028191544	0.3181757853573895	-0.04662814454844141	0.2901293887273997	-0.3665514784091288	-0.10927253741884042	0.4667942400148537	-0.10580182831368767	-0.10265247556688739	0.5039946031744147	0.17270963523054417	-0.04312226089650294	0.47099361866745	0.2714923776025563	-0.05341039353051489	0.5025604432863137	0.3080153948732104	-0.10061806547834924	0.5630402373145881	0.2867190436289957
154	3.422222222222222	0.1990340740327264	0.5376401708222327	0.14136113706003486	0.12106995014559659	0.7555095105523769	0.5309162597281357	0.07851458279493499	1.0354759206002544	0.9045778938093015	0.07235490876213152	0.8290733930757553	1.0002494592937443	0.12696672407250767	0.8972365555139837	1.0018259142661405	0.06849382244876734	1.1069718176841037	0.9377654652502487	-0.01055930703324533	0.5505871403640211	0.12049155875977205	-0.017577790702436726	0.794468682221367	0.5210008159876162	-0.04325692947161752	1.0451737611937573	0.8790211544170499	-0.07905168167496046	0.8252141121989007	0.9813266390243794	-0.1254285790097071	0.9209364468957988	0.9590583413625385	-0.02536700375057802	1.1261725047207016	0.9290584616711893	0.13621590749448956	0.22459068633617116	-0.44295009783062167	0.11541911393187927	0.04781078269861717	-0.6477947666678069	0.08555867019338342	0.07546533230394548	-0.5024299046421179	0.2963355411724861	0.26545284882317	-0.34272477802043394	0.3248661734420897	0.4195487457833189	-0.07559437157853015	0.282663360627361	0.4432736550523402	0.21281096157445054	0.19605696302947073	0.46633596548999695	0.31158540964836967	0.20673218200965165	0.47354653547316194	0.3420719209604516	0.23791551032837263	0.5659466610402534	0.3240916133120093	-0.046534155992660906	0.29025356944301534	-0.3667144403023127	-0.10923054109298001	0.4667674857993381	-0.10587909795785021	-0.10257261067911452	0.5040185311830125	0.1726879829059118	-0.0438721739586339	0.4720549453284243	0.27448752023809175	-0.04943851192137809	0.49251038833939204	0.3134995955159052	-0.10053829613384273	0.5632193115895409	0.28677224421230607
155	3.4444444444444446	0.1990061768528159	0.5377160431843038	0.141453260103622	0.12103186746135192	0.7554581717979576	0.530930832970438	0.07856760533255817	1.0353440553061475	0.9046756750732529	0.07211503578210476	0.8291221296705094	1.0004445290932664	0.12682496364019324	0.8974810571513278	1.0018845207805127	0.068335643014388	1.1069821859371796	0.9380786929285798	-0.011289331309102736	0.5519791488862005	0.12370467536902954	-0.017561112062436574	0.7945931391474204	0.5210163430666808	-0.043289201599887056	1.0455504243134772	0.8792477097304611	-0.0790364686396704	0.8251372300399635	0.9812709759443785	-0.12534355245123188	0.9209443513946937	0.9589415390372972	-0.029262545371807787	1.147575693392811	0.93053015650106	0.13615582745393143	0.22248087781381573	-0.4458234307640402	0.11561059739900381	0.048026743716425964	-0.6479392712413548	0.08603640361108231	0.07214059874622651	-0.508433408461429	0.2963772089118226	0.26518482646712543	-0.3426435088349524	0.32483583805140526	0.41965059707126845	-0.07552410033110296	0.2826507698580573	0.4432650066637587	0.21281695433113307	0.19612421006564068	0.4664492907240817	0.31142887012301385	0.20671426580184807	0.4735282075690879	0.34204714963908645	0.23747627827248685	0.5625853733187591	0.3199489283500517	-0.04656620088757266	0.2902977854274793	-0.366645448205195	-0.11339216940255374	0.4658721642572262	-0.10589392613407424	-0.10257909652578696	0.5041765680551027	0.17261469674281626	-0.043908390841455903	0.4720912157126295	0.2744849360454896	-0.04945527728609838	0.49247520638602055	0.313472536709956	-0.10057743690879152	0.5632564848617424	0.28663562599040315
156	3.466666666666667	0.19821198761289188	0.540014193369775	0.1485647815430911	0.12100786725007578	0.7553074563922395	0.5310411668361911	0.07916576924501204	1.039332185584184	0.9091407800150826	0.06806246263516931	0.815269627674625	0.9987325482261756	0.11843363233962277	0.9120363365989214	1.002821755956391	0.06813541110557142	1.1068960597124853	0.9383213214742233	-0.01120974907137304	0.553204706745913	0.12710321648987946	-0.01726707700108655	0.7950958801565677	0.5209568558589135	-0.04353642148384657	1.0454873903201867	0.8794152983368764	-0.07915688976314875	0.8253194835493793	0.981680623796442	-0.125082706659676	0.9250763058814814	0.9639463355285742	-0.025083887516271632	1.1285974591024492	0.9320403382273945	0.1361678240032365	0.22228370797530295	-0.44587404759823307	0.11932344814735589	0.04920754113647841	-0.6481795143639018	0.0899900106428662	0.0819596460353784	-0.5129586148542534	0.29823871974919963	0.25183804151433314	-0.33792045662670295	0.3225628168937605	0.4338607598795592	-0.07933841388233168	0.28259496142574403	0.44323073820887743	0.21288457264889682	0.1962081410366501	0.4664591791011943	0.3113981717144909	0.20647783436668482	0.4736860501635352	0.34187625243544223	0.23672372559940077	0.5634459248538052	0.3202187421383696	-0.043085822996434715	0.2766112005389386	-0.36509216288573176	-0.10980172366196697	0.45358594301370647	-0.09901211560515762	-0.10240745909094864	0.5042244496146445	0.1724666327434265	-0.04400977630130762	0.47188461313998126	0.27462964666089684	-0.049867119922515066	0.4896358573195829	0.3104285960718675	-0.10090074113000425	0.5605572870348238	0.28307397281630287
